<svg width="64px" height="64px" viewBox="0 0 64 64" version="1.1" xml:space="preserve" xmlns="http://www.w3.org/2000/svg" xmlns:xlink="http://www.w3.org/1999/xlink" fill="#000000" style="padding: 5%;">
    <g id="SVGRepo_bgCarrier" stroke-width="0"></g>
    <g id="SVGRepo_tracerCarrier" stroke-linecap="round" stroke-linejoin="round"></g>
    <g id="SVGRepo_iconCarrier">
        <style type="text/css"> .st0{fill:#FFEEA9;} .st1{fill:#D32436;} .st2{fill:#8DD1D3;} .st3{fill:#330D00;} .st4{fill:none;stroke:#330D00;stroke-linecap:round;stroke-linejoin:round;stroke-miterlimit:10;} </style>
        <g id="_x34_0-Id_Card">
            <g>
                <g>
                    <polygon class="st0" points="49.7,9.9 49.7,62.9 14.3,62.9 14.3,9.9 25.4,9.9 25.4,12.1 38.6,12.1 38.6,9.9 "></polygon>
                </g>
                <g>
                    <rect class="st1" height="6.6" width="13.3" x="25.4" y="5.5"></rect>
                </g>
                <g>
                    <circle class="st2" cx="32" cy="27.6" r="6.6"></circle>
                </g>
                <g>
                    <path class="st1" d="M43,43H21v0c0-4.9,4-8.8,8.8-8.8h4.4C39.1,34.2,43,38.1,43,43L43,43z"></path>
                </g>
                <g>
                    <g>
                        <path class="st3" d="M49.7,8.8h-9.9V5.5c0-0.6-0.5-1.1-1.1-1.1h-1.2c-0.2-1.1-0.7-2-1.5-2.8c-2.1-2.1-5.8-2.1-7.8,0 c-0.8,0.8-1.3,1.7-1.5,2.8h-1.2c-0.6,0-1.1,0.5-1.1,1.1v3.3h-9.9c-0.6,0-1.1,0.5-1.1,1.1v53c0,0.6,0.5,1.1,1.1,1.1h35.3 c0.6,0,1.1-0.5,1.1-1.1v-53C50.8,9.3,50.3,8.8,49.7,8.8z M29.7,3.1c1.2-1.2,3.4-1.3,4.7,0c0.4,0.3,0.6,0.8,0.8,1.2h-6.3 C29,3.9,29.3,3.5,29.7,3.1z M26.5,6.6h1.1h8.8h1.1v3.3V11h-11V9.9V6.6z M48.6,61.8H15.4V11h8.8v1.1c0,0.6,0.5,1.1,1.1,1.1h13.3 c0.6,0,1.1-0.5,1.1-1.1V11h8.8V61.8z"></path>
                    </g>
                    <g>
                        <path class="st3" d="M39.7,27.6c0-4.3-3.5-7.7-7.7-7.7s-7.7,3.5-7.7,7.7c0,2.4,1.1,4.5,2.8,5.9c-4.2,1.2-7.3,5-7.3,9.5 c0,0.6,0.5,1.1,1.1,1.1H43c0.6,0,1.1-0.5,1.1-1.1c0-4.5-3.1-8.3-7.3-9.5C38.6,32.1,39.7,30,39.7,27.6z M26.5,27.6 c0-3,2.5-5.5,5.5-5.5s5.5,2.5,5.5,5.5S35,33.1,32,33.1S26.5,30.6,26.5,27.6z M34.2,35.3c3.9,0,7.1,2.9,7.7,6.6H22.1 c0.5-3.7,3.8-6.6,7.7-6.6H34.2z"></path>
                    </g>
                    <g>
                        <path class="st3" d="M43,48.5H21c-0.6,0-1.1,0.5-1.1,1.1s0.5,1.1,1.1,1.1H43c0.6,0,1.1-0.5,1.1-1.1S43.7,48.5,43,48.5z"></path>
                    </g>
                    <g>
                        <path class="st3" d="M43,55.2H21c-0.6,0-1.1,0.5-1.1,1.1s0.5,1.1,1.1,1.1H43c0.6,0,1.1-0.5,1.1-1.1S43.7,55.2,43,55.2z"></path>
                    </g>
                </g>
            </g>
        </g>
    </g>
</svg>
