<svg width="694" height="643" viewBox="0 0 694 643" fill="none" xmlns="http://www.w3.org/2000/svg">
<path d="M684.211 304.173C677.666 276.708 667.742 250.16 654.665 225.14C644.091 204.857 630.343 185.438 613.419 169.968C604.151 161.463 594.062 153.899 583.302 147.386C571.496 140.561 559.119 134.776 546.311 130.096C520.167 119.919 492.616 113.822 464.622 112.019C449.987 111.22 435.31 112.355 420.972 115.397C408.025 118.111 395.201 122.075 382.439 125.623C355.328 133.212 328.155 142.59 303.617 156.548C290.908 164.103 278.881 172.753 267.674 182.399C257.791 190.59 248.456 199.421 239.73 208.836C229.617 219.453 220.861 231.287 213.667 244.065C206.745 257.255 201.069 271.063 196.712 285.31C192.705 297.927 189.468 310.775 186.262 323.608C182.779 337.49 179.542 351.572 177.246 365.762C172.067 397.783 170.634 429.85 178.463 461.639C180.651 470.434 183.585 479.025 187.233 487.32C187.861 491.034 189.157 494.603 191.056 497.855C210.106 541.043 240.655 578.693 280.775 603.865C299.635 615.471 320.002 624.424 341.302 630.472C365.868 637.582 391.258 641.445 416.826 641.963C470.278 643.12 525.288 629.13 570.771 600.75C593.71 586.571 614.233 568.809 631.56 548.138C640.945 536.987 649.452 525.127 657.007 512.662C664.331 500.026 670.639 486.828 675.873 473.192C686.308 446.832 691.425 418.297 692.827 390.024C693.948 361.146 691.048 332.252 684.211 304.173Z" fill="#8AD8FF"/>
<path d="M441.439 84.2552C464.704 84.2552 483.564 65.3954 483.564 42.1307C483.564 18.8659 464.704 0.00610352 441.439 0.00610352C418.175 0.00610352 399.315 18.8659 399.315 42.1307C399.315 65.3954 418.175 84.2552 441.439 84.2552Z" fill="white"/>
<path d="M399.276 42.1246C399.276 18.8558 418.132 0 441.401 0C464.669 0 483.525 18.8558 483.525 42.1246C483.525 65.3934 464.669 84.2491 441.401 84.2491C418.132 84.2491 399.276 65.3934 399.276 42.1246Z" fill="#F0CC1D"/>
<path opacity="0.502" d="M102.499 97.8895C112.428 93.3761 135.496 103.907 152.045 108.019C159.066 109.724 172.004 110.126 181.332 106.214C189.055 102.904 196.176 98.4913 205.102 102.102C213.226 105.412 222.955 103.907 224.259 97.8895C225.563 91.8717 224.66 86.556 212.825 87.3583C206.606 87.7595 200.188 88.5619 196.978 83.3465C185.845 58.4729 170.6 77.6296 158.464 65.6943C153.75 61.0806 146.93 58.5732 140.812 61.3815C132.287 65.1928 129.278 71.7121 119.649 71.7121C82.1385 71.7121 83.2417 105.111 102.499 97.8895Z" fill="#E3E3E3"/>
<path opacity="0.502" d="M508.814 225.243C518.743 220.73 541.811 231.261 558.36 235.373C565.381 237.078 578.319 237.479 587.647 233.568C595.37 230.258 602.491 225.845 611.417 229.455C619.541 232.765 629.27 231.261 630.574 225.243C631.878 219.225 630.975 213.909 619.14 214.712C612.922 215.113 606.503 215.915 603.293 210.7C592.16 185.826 576.915 204.983 564.779 193.048C560.065 188.434 553.245 185.927 547.127 188.735C538.602 192.546 535.493 199.066 525.864 199.066C488.454 199.066 489.557 232.464 508.814 225.243Z" fill="white"/>
<mask id="mask0_2920_3318" style="mask-type:alpha" maskUnits="userSpaceOnUse" x="173" y="111" width="521" height="532">
<path d="M684.688 304.173C678.143 276.708 668.218 250.16 655.141 225.14C644.568 204.857 630.819 185.438 613.896 169.968C604.627 161.463 594.539 153.899 583.779 147.386C571.972 140.561 559.595 134.776 546.787 130.096C520.644 119.919 493.093 113.822 465.098 112.019C450.463 111.22 435.787 112.355 421.449 115.397C408.502 118.111 395.678 122.075 382.916 125.623C355.804 133.212 328.631 142.59 304.094 156.548C291.384 164.103 279.357 172.753 268.15 182.399C258.267 190.59 248.932 199.421 240.207 208.836C230.093 219.453 221.338 231.287 214.143 244.065C207.221 257.255 201.545 271.063 197.189 285.31C193.181 297.927 189.945 310.775 186.739 323.608C183.255 337.49 180.019 351.572 177.722 365.762C172.543 397.783 171.11 429.85 178.94 461.639C181.127 470.434 184.061 479.025 187.71 487.32C188.338 491.034 189.633 494.603 191.532 497.855C210.583 541.043 241.131 578.693 281.252 603.865C300.112 615.471 320.479 624.424 341.779 630.472C366.345 637.582 391.735 641.445 417.302 641.963C470.755 643.12 525.764 629.13 571.248 600.75C594.187 586.571 614.709 568.809 632.037 548.138C641.421 536.987 649.929 525.127 657.484 512.662C664.807 500.026 671.115 486.828 676.349 473.192C686.784 446.832 691.901 418.297 693.304 390.024C694.424 361.146 691.525 332.252 684.688 304.173Z" fill="#8AD8FF"/>
</mask>
<g mask="url(#mask0_2920_3318)">
<path opacity="0.5" d="M367.783 545.713C367.783 545.713 417.229 490.149 447.118 497.37C477.006 504.592 532.671 511.512 538.789 496.768C545.007 481.925 552.128 464.473 581.014 469.588C609.899 474.804 624.241 443.812 624.241 443.812C624.241 443.812 639.687 425.257 677.9 425.257C716.113 425.257 699.564 397.475 726.343 419.039C753.122 440.602 824.233 421.145 824.233 421.145C824.233 421.145 879.897 409.811 876.788 441.806C873.679 473.801 924.229 458.255 924.229 458.255C924.229 458.255 963.444 457.252 941.78 485.034C920.116 512.816 948.3 504.592 948.3 504.592C948.3 504.592 978.89 497.37 970.666 514.822C962.441 532.374 1072.77 478.113 1072.77 478.113C1072.77 478.113 1130.44 459.057 1180.99 492.055C1231.54 525.052 1259.32 474.703 1259.32 474.703C1259.32 474.703 1283.99 431.275 1334.54 465.275C1385.09 499.276 1407.76 444.614 1407.76 444.614L1428.42 537.389L1368.64 564.168L1224.42 574.699H403.79L367.783 545.713Z" fill="#2F3A00"/>
<path d="M-136.208 475.807C-136.208 475.807 -47.1442 467.382 -2.71283 502.285C41.7186 537.288 168.794 508.704 190.057 502.285C211.32 495.866 290.655 471.594 381.724 512.816C472.793 554.038 564.966 519.335 564.966 519.335C564.966 519.335 645.504 492.757 716.414 522.445C787.323 552.132 844.592 475.807 907.077 580.617H-136.208V475.807Z" fill="#C6DBEF"/>
<path opacity="0.5" d="M-136.208 475.807C-136.208 475.807 -47.1442 467.382 -2.71283 502.285C41.7186 537.288 168.794 508.704 190.057 502.285C211.32 495.866 290.655 471.594 381.724 512.816C472.793 554.038 564.966 519.335 564.966 519.335C564.966 519.335 645.504 492.757 716.414 522.445C787.323 552.132 844.592 475.807 907.077 580.617H-136.208V475.807Z" fill="#A2C318"/>
<path opacity="0.5" d="M-136.208 540.097C-136.208 540.097 -76.6314 536.486 -37.1145 555.241C2.40233 573.997 76.5215 545.914 76.5215 545.914C76.5215 545.914 137.502 525.654 191.06 550.828C244.619 575.903 360.06 550.026 360.06 550.026C360.06 550.026 464.268 528.061 508.398 596.664C552.529 665.267 -136.107 615.419 -136.107 615.419L-136.208 540.097Z" fill="#2F3A00"/>
<path d="M661 575H190V586H661V575Z" fill="#ECECEC"/>
<path d="M648 586H208V650H648V586Z" fill="#828282"/>
</g>
<path opacity="0.5" d="M458.25 603.284H365.777C365.777 603.284 310.213 602.08 260.867 590.947C211.521 579.915 -35.4093 599.974 5.31106 607.496C46.0315 614.918 547.113 620.635 458.25 603.284Z" fill="#565656"/>
<path d="M164.582 352.342L173.207 300.889" stroke="#303032" stroke-width="4.49732" stroke-miterlimit="10"/>
<path d="M336.691 164.587C336.691 164.587 351.134 165.991 333.682 166.994C316.23 167.997 304.596 164.687 304.596 164.687C304.596 164.687 300.584 185.047 280.224 203.502C259.864 221.856 248.229 222.458 240.105 240.812C231.981 259.167 204.099 283.137 204.099 283.137C204.099 283.137 200.488 285.745 197.479 285.745C194.47 285.745 177.42 283.137 175.314 296.778C175.314 296.778 173.107 312.223 185.243 312.223C185.243 312.223 191.361 311.722 191.361 308.613C191.361 305.504 187.249 303.999 187.249 303.999V299.887C197.78 308.212 204.099 298.884 200.99 296.276C200.99 296.276 209.615 296.778 211.621 289.556C211.621 289.556 231.981 272.707 249.734 260.47C267.486 248.234 277.616 236.901 279.121 234.494C279.121 234.494 300.484 213.03 305.499 210.422C310.814 207.815 335.187 181.838 336.691 164.587Z" fill="#EDB088"/>
<path d="M156.157 400.785L167.691 371.398L173.107 355.952L162.877 350.336C162.877 350.336 163.78 312.323 164.682 297.981" stroke="#303032" stroke-width="4.49732" stroke-miterlimit="10"/>
<path d="M379.618 328.471C379.618 328.471 385.334 351.339 333.682 357.256C291.657 362.171 305.298 358.059 284.436 357.156C275.109 356.755 279.722 369.192 278.218 371.298C273.303 378.018 267.787 384.437 267.787 384.437C267.787 384.437 273.805 417.836 267.887 442.609C267.887 442.609 266.383 457.854 281.527 479.719C281.527 479.719 253.946 499.377 248.43 482.928L257.256 468.285L215.432 372.602C215.432 372.602 202.193 342.513 232.482 331.881C262.772 321.35 285.84 308.412 349.328 298.081C412.816 287.751 379.618 328.471 379.618 328.471Z" fill="#C2C2C2"/>
<path d="M273.103 440.302C273.103 440.302 261.835 450.437 251.203 453.942C257.176 469.019 253.74 472.196 249.445 480.616C250.749 481.218 252.451 487.058 262.33 488.347C270.49 487.488 282.203 479.286 280.799 477.18C279.394 474.973 273.103 440.302 273.103 440.302Z" fill="#FFC8A3"/>
<path d="M286.743 544.71L427.76 536.586" stroke="#575756" stroke-width="1.49916" stroke-miterlimit="10" stroke-dasharray="3 3"/>
<path d="M92.6693 604.688C139.974 604.688 178.323 566.34 178.323 519.035C178.323 471.73 139.974 433.382 92.6693 433.382C45.3643 433.382 7.01599 471.73 7.01599 519.035C7.01599 566.34 45.3643 604.688 92.6693 604.688Z" stroke="#575756" stroke-width="11.9931" stroke-miterlimit="10"/>
<path d="M427.76 459.057C394.662 459.057 367.783 485.937 367.783 519.035" stroke="#EBF7FD" stroke-width="1.49916" stroke-miterlimit="10"/>
<path d="M92.6694 459.057C59.5715 459.057 32.692 485.937 32.692 519.035" stroke="#EBF7FD" stroke-width="4.49732" stroke-miterlimit="10"/>
<path d="M424.35 604.688C471.655 604.688 510.003 566.34 510.003 519.035C510.003 471.73 471.655 433.382 424.35 433.382C377.045 433.382 338.697 471.73 338.697 519.035C338.697 566.34 377.045 604.688 424.35 604.688Z" stroke="#575756" stroke-width="11.9931" stroke-miterlimit="10"/>
<path d="M332.278 518.433C332.278 467.583 373.5 426.361 424.35 426.361C475.2 426.361 516.422 467.583 516.422 518.433C516.422 518.433 489.643 526.156 454.238 500.881C416.527 474.102 404.792 494.663 374.603 510.409C344.213 526.256 335.688 522.344 332.278 518.433Z" fill="#432600"/>
<path d="M185.444 518.132C185.444 467.382 144.422 426.361 93.6722 426.361" stroke="#B56805" stroke-width="16.4904" stroke-miterlimit="10" stroke-linecap="round"/>
<path d="M92.6692 536.285C102.197 536.285 109.92 528.562 109.92 519.034C109.92 509.507 102.197 501.783 92.6692 501.783C83.1418 501.783 75.4182 509.507 75.4182 519.034C75.4182 528.562 83.1418 536.285 92.6692 536.285Z" fill="#575756"/>
<path d="M338.797 397.676L363.972 337.698H355.948L330.272 399.581L338.797 397.676Z" fill="#575756"/>
<path d="M426.055 538.391C435.583 538.391 443.306 530.668 443.306 521.14C443.306 511.613 435.583 503.889 426.055 503.889C416.528 503.889 408.804 511.613 408.804 521.14C408.804 530.668 416.528 538.391 426.055 538.391Z" fill="#575756"/>
<path d="M286.041 495.164L250.637 501.482C250.236 501.583 250.035 501.884 250.135 502.285L250.837 506.297C250.938 506.698 251.239 506.898 251.64 506.798L287.044 500.479C287.446 500.379 287.646 500.078 287.546 499.677L286.844 495.665C286.744 495.364 286.342 495.063 286.041 495.164Z" fill="#575756"/>
<path d="M284.236 480.32C286.242 485.234 288.649 494.863 285.74 495.264C278.82 496.468 251.639 501.282 251.639 501.282C251.639 501.282 249.433 501.382 242.813 505.294C235.893 509.306 220.548 510.509 220.548 510.509C220.548 510.509 210.217 512.515 215.432 502.987C220.648 493.459 249.934 480.52 249.934 480.52C249.934 480.52 258.058 487.642 264.678 484.934C269.191 483.128 275.109 479.016 280.023 477.211C281.127 476.609 283.233 477.813 284.236 480.32Z" fill="#A2C318"/>
<path d="M343.311 399.682L328.567 393.062L290.354 493.158L303.493 500.48L343.311 399.682Z" fill="#F59C28"/>
<path d="M159.768 387.847L248.831 509.005H271.398H406.899L392.757 497.471L326.962 441.706L330.071 433.783L428.964 517.53C430.067 518.433 430.87 519.737 430.87 521.241C430.87 523.849 428.763 525.955 426.256 525.955H423.849H243.515L151.142 418.437L159.768 387.847Z" fill="#B56805"/>
<path d="M384.031 495.565L395.365 504.893H276.012L286.844 493.158H351.635C364.172 492.656 374.904 493.659 384.031 495.565Z" fill="#B56805"/>
<path d="M286.543 546.215C301.166 546.215 313.021 534.36 313.021 519.737C313.021 505.113 301.166 493.258 286.543 493.258C271.919 493.258 260.064 505.113 260.064 519.737C260.064 534.36 271.919 546.215 286.543 546.215Z" fill="#F59C28"/>
<path d="M286.543 534.279C294.575 534.279 301.086 527.768 301.086 519.736C301.086 511.704 294.575 505.193 286.543 505.193C278.511 505.193 272 511.704 272 519.736C272 527.768 278.511 534.279 286.543 534.279Z" fill="#575756"/>
<path d="M346.52 514.02H281.628C280.826 514.02 280.124 514.722 280.124 515.524V524.651C280.124 525.454 280.826 526.156 281.628 526.156H346.52C347.322 526.156 348.025 525.454 348.025 524.651V515.524C348.025 514.722 347.322 514.02 346.52 514.02Z" fill="#575756"/>
<path d="M286.743 523.047C288.571 523.047 290.053 521.565 290.053 519.737C290.053 517.909 288.571 516.427 286.743 516.427C284.915 516.427 283.433 517.909 283.433 519.737C283.433 521.565 284.915 523.047 286.743 523.047Z" fill="#4F4F4F"/>
<path d="M363.47 507.601L336.892 531.772C336.591 531.973 336.591 532.474 336.892 532.675L339.6 535.684C339.8 535.985 340.302 535.985 340.502 535.684L367.081 511.512C367.382 511.312 367.382 510.81 367.081 510.61L364.373 507.601C364.172 507.4 363.771 507.4 363.47 507.601Z" fill="#575756"/>
<path d="M391.152 292.966C391.152 292.966 423.748 330.979 381.323 360.967C346.62 385.44 305.198 382.832 286.443 391.959C278.018 396.171 272.902 399.782 272.501 402.289C271.398 410.413 286.944 421.647 286.944 421.647C286.944 421.647 315.93 446.921 322.65 471.494C322.65 471.494 328.667 485.636 352.337 497.471C352.337 497.471 337.493 527.961 324.856 516.126L325.558 498.975L242.914 434.986C242.914 434.986 216.937 414.927 238.4 391.156C259.964 367.286 282.531 343.616 333.381 304.099C384.533 264.683 391.152 292.966 391.152 292.966Z" fill="#ECECEC"/>
<path d="M160.57 302.093L198.081 323.055C199.184 323.657 200.588 323.256 201.19 322.052L205.202 314.53C205.804 313.427 205.403 312.023 204.199 311.421L166.688 290.459C165.585 289.857 164.181 290.258 163.579 291.462L159.567 298.984C159.066 300.188 159.467 301.592 160.57 302.093Z" fill="#575756"/>
<path d="M272.601 98.2902C272.601 98.2902 275.009 151.949 299.381 144.828C299.381 144.828 308.809 147.235 312.018 158.268L340.903 159.973L346.721 144.025L323.953 94.2783L272.601 98.2902Z" fill="#FFD2A1"/>
<path d="M299.581 144.928C301.694 144.049 307.103 142.421 310.012 139.913C311.115 149.141 340.201 169.401 348.526 160.775C379.317 128.48 352.337 162.681 352.337 162.681C352.337 162.681 334.183 173.111 330.071 173.011C328.599 172.975 321.007 171.05 313.121 169.501C314.626 156.231 306.602 146.433 299.581 144.928Z" fill="#D6B696"/>
<path d="M376.308 215.437C376.308 215.437 397.37 290.86 397.37 300.187C397.37 302.996 388.645 299.385 381.122 305.202C376.007 309.114 365.175 312.725 346.62 307.409C335.187 304.199 327.965 303.397 327.464 302.494C325.959 299.887 328.968 256.759 323.853 247.532C318.738 238.305 296.873 235.897 295.87 218.546L315.328 178.528L326.762 156.964C326.762 156.964 346.62 156.663 349.529 134.798C352.438 112.934 375.606 182.439 375.606 182.439L376.308 215.437Z" fill="#D95461"/>
<path d="M362.768 195.779C362.768 195.779 373.399 243.721 406.196 232.387C438.893 221.154 432.976 180.634 423.748 173.814C414.521 166.894 392.857 166.292 390.751 145.831C388.645 125.271 373.901 113.235 356.55 114.439C339.299 115.642 340.402 94.3792 340.402 94.3792C340.402 94.3792 333.181 49.1455 297.575 70.2077C297.575 70.2077 288.95 74.1193 286.041 74.1193C286.041 74.1193 256.654 82.7448 272.702 101.801C272.702 101.801 283.032 98.4914 291.457 104.509C299.782 110.527 297.475 113.736 303.593 111.731C309.912 109.624 312.219 99.8955 319.34 112.934C319.34 112.934 319.64 115.943 318.738 119.554C317.835 123.164 312.72 150.445 328.366 156.463C360.461 168.599 362.768 195.779 362.768 195.779Z" fill="#575756"/>
<path d="M333.582 176.221C333.582 176.221 336.39 154.356 318.939 155.359C301.487 156.362 301.487 176.221 301.487 176.221C301.487 176.221 297.375 196.581 277.015 214.936C256.654 233.29 244.92 233.791 236.796 252.146C228.672 270.5 200.689 294.37 200.689 294.37C200.689 294.37 197.078 296.978 194.069 296.978C191.06 296.978 174.01 294.37 171.804 308.011C171.804 308.011 169.597 323.456 181.733 323.456C181.733 323.456 187.851 322.955 187.851 319.846C187.851 316.737 183.739 315.232 183.739 315.232V311.12C183.739 311.12 187.851 299.987 197.479 307.509C197.479 307.509 206.105 308.011 208.111 300.89C208.111 300.89 228.471 284.14 246.324 271.904C264.177 259.668 274.307 248.435 275.811 246.028C275.811 246.028 297.174 224.664 302.189 222.057C307.605 219.549 331.977 193.472 333.582 176.221Z" fill="#FFC8A3"/>
<path d="M348.66 495.219C348.66 495.219 339.807 489.636 327.185 478.469C324.313 482.946 319.865 488.067 315.588 491.384C318.309 492.874 327.199 503.953 324.784 516.694C342.218 520.56 348.66 508.963 348.66 495.219Z" fill="#FFC8A3"/>
<path d="M354.042 495.966C358.355 499.075 365.476 505.895 363.27 507.801C358.054 512.515 337.694 531.07 337.694 531.07C337.694 531.07 335.889 532.273 332.278 539.194C328.567 546.315 316.231 555.442 316.231 555.442C316.231 555.442 308.407 562.663 308.006 551.831C307.605 540.999 325.157 514.421 325.157 514.421C325.157 514.421 335.688 516.126 339.901 510.208C342.709 506.196 345.718 499.677 348.727 495.565C349.529 494.562 351.936 494.462 354.042 495.966Z" fill="#A2C318"/>
<path d="M161.874 370.395L131.484 459.458L88.056 514.822C87.9557 514.922 87.8554 515.022 87.7551 515.123C87.3539 515.724 87.1533 516.427 87.1533 517.229C87.1533 519.335 88.8583 521.141 91.0648 521.141C92.1681 521.141 93.1711 520.639 93.8732 519.937L141.213 462.467L174.411 376.312L161.874 370.395Z" fill="#F59C28"/>
<path d="M314.926 122.361C315.428 119.553 308.608 118.249 303.091 110.125C300.283 105.913 300.083 103.305 300.083 102.001C300.183 99.6942 300.985 98.0894 302.891 94.6794C309.21 83.6467 310.915 81.5405 310.012 79.5346C309.009 77.4284 305.298 76.3251 304.195 77.3281C303.693 77.7292 303.593 78.4313 303.693 79.1334C301.788 81.9417 300.484 84.4491 299.481 86.3548C298.277 88.5613 296.372 92.5731 294.667 97.7886C292.961 102.904 293.162 104.508 293.262 105.311C293.664 107.919 295.068 109.323 296.873 111.83C303.392 120.355 305.599 122.662 307.204 129.984C308.006 133.494 314.525 124.467 314.926 122.361Z" fill="#1D252D"/>
<path d="M270.796 94.8802C273.906 95.9834 277.516 96.3846 285.139 95.1811C294.466 93.6766 295.77 92.0719 305.499 89.9656C313.322 88.2606 318.838 87.057 326.16 88.2606C330.172 88.8624 335.287 89.7651 339.901 93.8772C341.505 95.2814 345.417 98.892 347.022 104.408C347.824 107.116 347.824 109.624 350.031 111.73C351.736 113.335 353.641 113.836 354.544 114.037C355.346 114.237 356.048 114.338 356.851 114.338C354.343 116.945 351.335 119.754 347.423 119.754C343.812 119.754 341.104 117.447 340.402 116.945C338.196 115.04 337.895 113.435 336.089 110.125C334.585 107.317 331.676 102.202 327.364 99.9953C324.455 98.4909 321.546 98.6914 315.83 98.9923C309.711 99.3935 307.605 100.396 297.977 102.202C291.157 103.506 289.452 103.907 286.242 103.907C282.23 103.907 272.702 103.907 268.189 97.6885C266.985 96.0837 266.383 94.2784 266.082 92.5734C268.289 93.9775 270.596 94.7799 270.796 94.8802Z" fill="#575756"/>
<path d="M267.286 96.4856C267.486 96.8868 267.687 97.1877 267.988 97.5889C267.787 97.1877 267.486 96.7865 267.286 96.4856Z" fill="url(#paint0_linear_2920_3318)"/>
<path d="M357.151 65.2929C349.027 55.3635 338.095 52.8561 330.272 51.0508C324.254 49.6466 307.806 46.1363 290.755 54.7618C288.749 55.7647 268.088 66.5968 265.781 85.1516C265.48 87.1575 265.179 90.367 266.082 93.5765C265.982 93.1754 265.882 92.7742 265.781 92.4733C268.188 93.9777 270.495 94.7801 270.796 94.8804C273.905 95.9837 277.516 96.3848 285.138 95.1813C294.466 93.6768 295.77 92.0721 305.499 89.9659C313.322 88.2608 318.838 87.0573 326.16 88.2608C330.172 88.8626 335.287 89.7653 339.9 93.8774C341.505 95.2816 345.417 98.8923 347.021 104.409C347.824 107.117 347.824 109.624 350.03 111.73C351.735 113.335 353.641 113.836 354.544 114.037C355.346 114.238 356.048 114.338 356.851 114.338C356.75 114.438 356.65 114.639 356.449 114.739C356.851 114.238 357.352 113.836 357.753 113.435C358.255 112.934 361.264 109.524 363.169 105.01C366.479 96.4851 368.084 78.6324 357.151 65.2929Z" fill="#D95461"/>
<path opacity="0.5" d="M348.426 64.6907C348.727 65.5933 348.827 66.8972 348.125 67.7999C347.022 69.3043 344.915 69.204 344.113 69.1037C341.706 69.0034 341.305 67.7999 336.591 65.5933C335.588 65.1922 334.284 64.5904 331.777 63.5874C329.771 62.785 328.567 62.9856 327.965 62.083C327.263 61.08 327.263 59.2747 328.166 58.2717C331.175 54.5607 336.892 57.7702 345.016 61.6818C346.52 62.4842 347.924 63.1862 348.426 64.6907Z" fill="#224060"/>
<path opacity="0.5" d="M318.938 56.5674C319.741 57.1692 320.343 58.2724 320.242 59.476C320.042 61.2813 318.136 62.2843 317.534 62.6855C315.428 63.889 314.425 62.9864 309.41 63.4879C308.307 63.5882 307.003 63.7888 304.295 64.2902C302.089 64.5911 301.286 65.3935 300.283 64.9923C299.08 64.4908 298.277 62.8861 298.478 61.5822C299.18 56.8683 305.8 56.6677 314.726 55.8653C316.13 55.765 317.735 55.5644 318.938 56.5674Z" fill="#224060"/>
<path opacity="0.5" d="M290.254 62.9865C291.156 63.1871 292.26 63.6886 292.761 64.6915C293.563 66.196 292.56 67.901 292.26 68.5028C291.156 70.4084 289.953 70.1076 286.141 72.8156C285.339 73.4173 284.336 74.1194 282.431 75.7242C280.926 76.9277 280.625 77.9307 279.522 78.031C278.318 78.1313 276.814 77.3289 276.312 76.1253C274.407 72.1135 279.722 68.904 286.342 64.3906C287.546 63.5883 288.749 62.7859 290.254 62.9865Z" fill="#224060"/>
<path d="M346.019 110.225C344.915 112.532 342.809 113.535 338.697 115.441C336.189 116.644 333.983 117.246 329.77 118.45C323.652 120.255 313.623 124.668 311.517 129.783C309.812 129.683 308.006 127.978 307.605 126.273C306.903 123.063 317.133 116.444 324.756 113.636C330.874 111.429 333.883 110.326 335.688 108.922C341.204 104.709 341.605 99.8949 343.712 100.196C345.818 100.697 347.824 106.314 346.019 110.225Z" fill="#1D252D"/>
<path d="M310.313 122.161L303.994 143.224C303.994 143.224 308.608 141.719 309.912 140.014C312.62 136.504 313.723 122.563 313.723 122.563L310.313 122.161Z" fill="#1D252D"/>
<defs>
<linearGradient id="paint0_linear_2920_3318" x1="267.305" y1="97.0436" x2="267.998" y2="97.0436" gradientUnits="userSpaceOnUse">
<stop stop-color="#48A5EF"/>
<stop offset="1" stop-color="#5779FA"/>
</linearGradient>
</defs>
</svg>
